<?xml version="1.0" encoding="UTF-8" standalone="no"?>
<!-- Created with Inkscape (http://www.inkscape.org/) -->

<svg
   version="1.1"
   id="svg1"
   width="1024"
   height="1024"
   viewBox="0 0 1024 1024"
   sodipodi:docname="logo factulite.svg"
   inkscape:version="1.4.3 (0d15f75042, 2025-12-25)"
   inkscape:export-filename="logo factulite.png"
   inkscape:export-xdpi="96"
   inkscape:export-ydpi="96"
   xmlns:inkscape="http://www.inkscape.org/namespaces/inkscape"
   xmlns:sodipodi="http://sodipodi.sourceforge.net/DTD/sodipodi-0.dtd"
   xmlns="http://www.w3.org/2000/svg"
   xmlns:svg="http://www.w3.org/2000/svg">
  <defs
     id="defs1" />
  <sodipodi:namedview
     id="namedview1"
     pagecolor="#ffffff"
     bordercolor="#000000"
     borderopacity="0.25"
     inkscape:showpageshadow="2"
     inkscape:pageopacity="0.0"
     inkscape:pagecheckerboard="0"
     inkscape:deskcolor="#d1d1d1"
     inkscape:zoom="0.34319538"
     inkscape:cx="719.70666"
     inkscape:cy="537.59465"
     inkscape:window-width="1366"
     inkscape:window-height="699"
     inkscape:window-x="0"
     inkscape:window-y="0"
     inkscape:window-maximized="1"
     inkscape:current-layer="svg1" />
  <rect
     style="fill:#ffffff;fill-opacity:1;stroke:#ff0000;stroke-width:3.77953"
     id="rect1"
     width="1024"
     height="1023.5425"
     x="0"
     y="0.4574798" />
  <path
     style="fill:#1f831d;fill-opacity:1;stroke-width:1.34532"
     d="m 0,0.45747981 c 305.49785,-0.65534836 718.50225,-0.56201385 1024,-0.002694 V 1024 H 0 Z M 171.96622,851.49095 c 3.74396,-0.80473 9.66977,-3.50313 13.16851,-5.99645 21.64593,-15.42573 20.34161,-14.76538 29.08995,-14.72793 8.91251,0.0381 11.7674,1.38215 22.28976,10.49349 7.43317,6.43639 13.75772,9.74145 20.9306,10.93783 9.00454,1.50188 16.36799,-1.30242 29.85556,-11.37023 18.79778,-14.0316 27.04321,-14.13488 43.95399,-0.55056 12.74028,10.23419 16.0641,11.77589 25.53281,11.843 9.55201,0.0678 13.83036,-1.92316 26.20473,-12.19397 14.5615,-12.08615 25.72536,-12.892 38.68962,-2.79276 18.35994,14.30249 17.22986,13.72173 27.7355,14.25342 11.42642,0.57829 14.24181,-0.56487 28.09,-11.40568 15.80354,-12.37154 25.94899,-12.97765 39.5207,-2.36104 24.20951,18.93813 33.02838,19.73715 52.70052,4.77484 13.35983,-10.16126 17.25007,-12.21332 23.28057,-12.2803 7.00798,-0.0779 13.57689,2.94941 21.94219,10.11201 12.89737,11.04305 16.12206,11.89259 47.40276,12.48832 l 27.39335,0.52167 -0.96759,-32.12821 c -0.53219,-17.67052 -1.13806,-32.30036 -1.34639,-32.51077 -0.20832,-0.21042 -5.44795,1.08598 -11.64359,2.88088 -24.75651,7.17203 -32.58333,8.23581 -60.3147,8.19771 -19.33222,-0.0265 -29.27438,-0.64786 -37.90925,-2.36896 -66.23719,-13.20242 -115.46573,-61.13229 -130.97567,-127.5205 -4.65468,-19.9237 -5.7542,-51.64408 -2.47428,-71.38137 10.84272,-65.24749 53.97822,-115.98096 115.05145,-135.31686 32.889,-10.41271 74.05813,-11.50371 105.96704,-2.80813 4.03072,1.09842 7.55504,1.77016 7.83181,1.49277 0.46973,-0.47077 -2.12656,-66.11728 -5.02165,-126.97163 -0.69694,-14.64953 -2.05382,-43.30239 -3.01529,-63.67302 -2.25763,-47.83221 -2.0538,-65.62902 0.87924,-76.76865 8.73245,-33.16572 35.60745,-53.11169 68.29451,-50.68651 6.3187,0.46881 13.61905,2.0584 18.46756,4.02114 8.05606,3.26123 27.33811,14.30351 26.47948,15.16405 -0.25276,0.25332 -3.7495,-0.8403 -7.77053,-2.43027 -5.6626,-2.23906 -10.34088,-2.91295 -20.74931,-2.98885 -12.48418,-0.091 -14.06246,0.20748 -22.2289,4.20437 -13.32032,6.51934 -24.33049,18.15443 -29.39522,31.06368 -5.38994,13.73811 -5.84233,22.50755 -3.57427,69.28661 2.07673,42.83273 4.23015,89.17469 5.4312,116.8799 0.33717,7.77788 1.02744,22.85108 1.53393,33.49601 l 0.92089,19.3544 6.99775,-0.82427 c 10.59273,-1.24773 18.44593,-5.41009 28.50649,-15.10898 11.13107,-10.73094 14.79656,-12.774 24.50009,-13.65584 6.82421,-0.62018 8.95974,-0.0723 22.13947,5.67924 16.35553,7.13752 25.41599,8.63993 37.25246,6.17722 13.05185,-2.71558 12.70702,-1.13469 6.63192,-30.40391 -2.92123,-14.07426 -8.34228,-39.83216 -12.04675,-57.23978 -3.70448,-17.40763 -8.84562,-41.65036 -11.42477,-53.87274 -4.64075,-21.99217 -13.17749,-61.79713 -20.79682,-96.97092 -2.16623,-10.00013 -5.42467,-21.54502 -7.24098,-25.65531 -3.83034,-8.66797 -11.76815,-16.1316 -20.97996,-19.7267 -5.90852,-2.30593 -19.12965,-2.45159 -258.86695,-2.85209 -259.24428,-0.43307 -261.73254,-0.3908 -278.17322,4.72616 -24.49876,7.62492 -47.51104,27.34598 -59.50956,50.99848 -4.43673,8.74602 -9.58226,26.04432 -10.9965,36.96804 -0.81147,6.26793 -1.32169,127.72749 -1.34746,320.77223 l -0.0415,310.68467 3.02362,0.58367 c 5.89431,1.13782 14.4032,0.9313 21.12107,-0.51262 z m 55.9093,-329.277 c -2.75827,-2.7644 -2.93796,-17.0688 -0.24258,-19.31074 2.59901,-2.16178 153.65292,-2.10003 156.25449,0.0638 1.11183,0.92478 1.79236,4.41717 1.79236,9.1981 0,13.11242 6.25276,12.16519 -80.30379,12.16519 -66.74344,0 -75.63092,-0.24271 -77.50048,-2.11643 z m -0.49914,-70.88113 c -1.9767,-1.98109 -2.13225,-15.09642 -0.22149,-18.67463 1.35541,-2.53823 3.85325,-2.6051 97.31792,-2.6051 52.75973,0 96.88334,0.36787 98.05245,0.81751 3.09644,1.19085 3.09644,20.07004 0,21.2609 -1.16911,0.44963 -45.19305,0.8175 -97.83097,0.8175 -72.64569,0 -96.09386,-0.3894 -97.31791,-1.61618 z m 0,-71.38137 c -0.88693,-0.8889 -1.6126,-5.03745 -1.6126,-9.21899 0,-13.27757 -14.66625,-12.06074 145.36735,-12.06074 134.36127,0 140.54877,0.1068 142.67634,2.46298 2.65478,2.94002 3.08996,16.3327 0.61143,18.81675 -2.34002,2.34521 -284.70251,2.34521 -287.04252,0 z m 1.07506,-71.11201 c -4.20045,-4.20979 -3.68052,-29.65882 -0.23014,-32.78831 2.25827,-2.04826 15.65191,-2.22897 165.19535,-2.22897 146.1517,0 162.95305,0.2157 164.84956,2.11643 2.55076,2.55642 3.93582,28.37908 -0.57592,32.90085 -2.65793,2.66383 -4.47944,2.69363 -164.61942,2.69363 -160.13999,0 -161.9615,-0.0298 -164.61943,-2.69363 z m 580.25169,483.17109 c 0.76403,-0.92593 1.59398,-9.02802 1.84433,-18.00463 l 0.45516,-16.32111 9.86275,-2.34085 c 44.52325,-10.56726 70.13419,-38.95251 70.07931,-77.67067 -0.0298,-21.03753 -6.16894,-35.9109 -20.83585,-50.47937 -10.98834,-10.9146 -28.65211,-20.72663 -48.44817,-26.91245 l -11.32995,-3.54034 v -27.46696 -27.46697 l 5.71128,0.87411 c 10.23175,1.56595 28.39208,7.32335 35.84869,11.36518 6.67402,3.61762 7.54791,3.78483 10.30802,1.97232 1.90554,-1.25133 3.82232,-4.84577 5.20657,-9.76361 1.20493,-4.28077 3.9742,-13.42973 6.15392,-20.33104 2.17971,-6.90132 3.96312,-13.37256 3.96312,-14.38055 0,-6.44723 -29.19566,-16.81361 -60.8084,-21.59099 l -5.03937,-0.76156 v -13.81119 c 0,-8.9463 -0.56802,-14.3805 -1.6126,-15.42739 -2.24318,-2.24816 -37.53425,-2.24816 -39.77743,0 -1.06039,1.06275 -1.61259,6.73152 -1.61259,16.5543 v 14.93811 l -9.58509,2.25449 c -5.27178,1.23997 -15.152,4.96866 -21.95604,8.28598 -33.08581,16.13107 -50.16189,46.34076 -44.50215,78.72983 5.16616,29.56458 25.57401,48.47866 66.97241,62.07038 l 9.07087,2.9781 0.14931,26.15315 c 0.0821,14.38423 0.14931,27.36529 0.14931,28.84679 0,5.73575 -0.0473,5.76369 -8.1989,4.8394 -13.89652,-1.57571 -34.14838,-8.38552 -44.59671,-14.99592 -6.46231,-4.08855 -9.39423,-3.89025 -10.77498,0.72879 -6.29806,21.06906 -8.6815,28.42072 -10.88275,33.56744 -3.57872,8.36736 -2.43179,11.50258 5.72299,15.6441 16.27447,8.26523 44.82291,16.66403 57.00915,16.7718 11.68241,0.1033 11.42258,-0.29264 11.42258,17.40711 0,10.44287 0.54238,16.27897 1.61259,17.35156 2.29984,2.30495 36.51059,2.24499 38.41862,-0.0673 z m 1.62758,-110.1024 c 0,-12.59275 0.45354,-22.89365 1.00787,-22.89088 2.80772,0.014 10.05841,5.91799 13.30348,10.83253 7.40974,11.22176 3.11807,26.63593 -9.20525,33.062 -1.99584,1.04075 -3.9612,1.89226 -4.36745,1.89226 -0.40625,0 -0.73865,-10.30316 -0.73865,-22.89591 z M 762.45184,579.75744 c -2.90372,-2.10811 -6.36937,-6.25522 -7.70143,-9.2158 -3.23928,-7.19937 -1.19566,-15.34974 5.41569,-21.59891 8.08229,-7.63952 8.50582,-6.88673 8.50582,15.11879 0,10.74088 -0.21163,19.52887 -0.47029,19.52887 -0.25866,0 -2.84606,-1.72483 -5.74979,-3.83295 z M 640.38047,766.66625 c 20.67438,-2.88193 43.19504,-10.37989 48.36135,-16.10129 2.02647,-2.24421 1.8732,-3.87712 -2.10334,-22.40724 -4.92898,-22.96843 -6.95734,-28.74095 -10.09902,-28.74095 -1.22807,0 -6.5718,2.1492 -11.87498,4.77599 -11.53965,5.71587 -26.07278,8.57999 -43.86771,8.6452 -22.71352,0.0832 -40.47736,-6.6236 -54.21354,-20.46867 -10.22777,-10.30885 -15.82367,-19.90424 -19.85702,-34.04911 -4.04239,-14.17657 -4.44903,-44.93166 -0.7744,-58.56797 3.94349,-14.63403 11.18565,-27.77902 20.38346,-36.99725 15.5188,-15.5533 33.88939,-21.74123 61.0174,-20.55307 17.46459,0.76491 28.09188,3.17125 39.4109,8.92375 10.07062,5.11804 12.99121,3.86496 15.36646,-6.59299 0.92534,-4.07412 3.52473,-13.96918 5.77643,-21.98904 4.95656,-17.65369 4.44856,-19.09224 -8.58919,-24.32321 -26.08847,-10.46713 -60.32401,-14.2077 -87.51919,-9.56231 -58.46876,9.98742 -99.50359,47.62599 -113.77679,104.36003 -2.41604,9.60342 -2.87918,15.35402 -2.8744,35.69068 0.005,20.79726 0.44711,26.02812 3.11168,36.80491 9.21959,37.28852 29.3772,65.49438 59.42361,83.14939 16.79049,9.86596 33.31546,15.64824 51.55057,18.03817 12.23484,1.60351 39.52728,1.58483 51.14772,-0.035 z"
     id="path1"
     sodipodi:nodetypes="cccccssssssssssssssssscssssssssssssssssssssssscsssssssssssssssscssssssssssssssssssssssssssssssscsssscccssssssscsssscsssscsssssssssssssssssssssssssssssssssssssssscsssss" />
</svg>
